Coordinates
version=1
nRows=22
nColumns=24
inDegrees=yes

Units are S.I. units (second, meters, Newtons, ...)
Angles are in degrees.

endheader
time	pelvis_tilt	pelvis_list	pelvis_rotation	pelvis_tx	pelvis_ty	pelvis_tz	hip_flexion_r	hip_adduction_r	hip_rotation_r	knee_angle_r	ankle_angle_r	subtalar_angle_r	mtp_angle_r	hip_flexion_l	hip_adduction_l	hip_rotation_l	knee_angle_l	ankle_angle_l	subtalar_angle_l	mtp_angle_l	lumbar_extension	lumbar_bending	lumbar_rotation
      2.23000000	     15.70746088	     -5.72315203	      5.30933773	      1.01936085	      0.91410683	      0.34158044	     13.05637281	      7.01078037	     -3.62178746	    -30.84184307	     14.24851624	      2.15319682	     37.11899091	    -19.29860440	     -7.41488918	     -3.15581644	    -53.40029153	     10.72743583	     12.65418851	     51.17683339	    -28.39265850	     10.26572154	      4.16450555
      2.23500000	     15.29647067	     -6.10623820	      5.50265711	      1.02526747	      0.91353827	      0.34151708	     13.23844603	      7.55207162	     -3.47544218	    -30.97372406	     14.51763334	      1.50207193	     36.58444845	    -17.59317012	     -7.83055129	     -2.58650870	    -55.71598540	     10.92336069	     11.76259789	     50.55179735	    -27.97436535	     10.76223937	      4.16501339
      2.24000000	     14.92309379	     -6.41010734	      5.65092176	      1.03122919	      0.91320129	      0.34144489	     13.34272009	      8.01697262	     -3.27046881	    -31.07263541	     14.88262149	      0.89588294	     35.52137896	    -15.97016818	     -8.10617057	     -2.03705774	    -57.85897602	     11.27840808	     10.74154509	     49.75316616	    -27.60290100	     11.15747544	      4.18654859
      2.24500000	     14.69358391	     -6.64660452	      5.90299335	      1.03702627	      0.91318669	      0.34121785	     13.24316356	      8.41490330	     -3.07390681	    -31.09150574	     15.31922837	      0.32585426	     33.42724854	    -14.47266286	     -8.32305572	     -1.43962668	    -59.88397210	     11.60241890	      9.54530062	     48.95603417	    -27.37333653	     11.54211342	      4.01940614
      2.25000000	     14.59946298	     -6.99863632	      6.22908712	      1.04291978	      0.91356210	      0.34097969	     12.89178254	      8.95866067	     -2.90455160	    -30.85284535	     15.52327162	     -0.45317529	     33.15664616	    -13.13366058	     -8.72676966	     -0.86662571	    -61.74635150	     11.77521283	      8.46576797	     48.93686152	    -27.27459971	     12.05815402	      3.93872421
      2.25500000	     14.36993320	     -7.28645438	      6.37915183	      1.04882736	      0.91382418	      0.34088745	     12.74524693	      9.40563577	     -2.63691317	    -30.77522832	     15.82207801	     -0.89496301	     32.69251106	    -11.69451999	     -9.01120142	     -0.48228012	    -63.48854993	     11.96881436	      7.19854289	     48.82824249	    -27.05546570	     12.43209730	      3.96006574
      2.26000000	     14.25092243	     -7.49116448	      6.58198069	      1.05481685	      0.91447105	      0.34074138	     12.45292465	      9.72678385	     -2.53578730	    -30.69115734	     16.15063344	     -1.18766664	     32.20649803	    -10.38093642	     -9.23681142	     -0.07948203	    -65.07436002	     12.12843579	      5.82078671	     48.71123983	    -26.94308032	     12.74805500	      3.83084950
      2.26500000	     14.17218412	     -7.63475350	      6.72125293	      1.06065231	      0.91526216	      0.34046942	     12.13764266	      9.95017676	     -2.49350596	    -30.68779241	     16.61929298	     -1.24910221	     30.75526282	     -9.13190897	     -9.37433716	      0.23478618	    -66.53090244	     12.23333582	      4.43513775	     48.12945962	    -26.89146306	     12.98860481	      3.76948209
      2.27000000	     14.12930118	     -7.78664485	      6.98405071	      1.06643365	      0.91618145	      0.34012251	     11.71294778	     10.18762788	     -2.48345761	    -30.51192132	     16.91182534	     -1.66496247	     30.64664112	     -7.86233431	     -9.57571781	      0.61615272	    -67.93478000	     12.37287721	      3.08827934	     47.91389101	    -26.85906763	     13.27338234	      3.56877001
      2.27500000	     13.95025265	     -7.92110605	      7.20614981	      1.07219495	      0.91689594	      0.33981879	     11.45736633	     10.36728274	     -2.51197730	    -30.38678962	     17.26590238	     -1.91796128	     30.47231516	     -6.42236792	     -9.71992068	      0.98555445	    -69.30434579	     12.71054108	      2.03253005	     47.70200246	    -26.67615538	     13.52128073	      3.35990557
      2.28000000	     13.84466519	     -8.00160423	      7.41725918	      1.07796078	      0.91792043	      0.33961608	     11.04144302	     10.51476161	     -2.49814800	    -30.12215795	     17.59333839	     -2.15262676	     30.25464639	     -5.08817567	     -9.80522534	      1.32312617	    -70.52271473	     12.93778882	      0.95139164	     47.34568400	    -26.57954659	     13.68864604	      3.13769718
      2.28500000	     13.64421181	     -8.03548415	      7.53140385	      1.08363532	      0.91884940	      0.33930828	     10.75496895	     10.56660027	     -2.51685035	    -29.93082258	     17.97480509	     -2.08993216	     29.80317403	     -3.68676808	     -9.77631596	      1.61163978	    -71.64300874	     13.18499489	      0.10131700	     46.48918196	    -26.40638111	     13.76641506	      3.04938197
      2.29000000	     13.70629597	     -8.03458704	      7.71926618	      1.08936981	      0.92027497	      0.33889035	     10.07063251	     10.62530831	     -2.53923852	    -29.53759422	     18.22393234	     -2.14268497	     29.70930332	     -2.64597309	     -9.74996612	      1.87864311	    -72.51454651	     13.49000856	     -0.65496467	     46.38757258	    -26.49964538	     13.85993943	      2.84656819
      2.29500000	     13.63504536	     -8.13354900	      7.93955159	      1.09517870	      0.92147739	      0.33847377	      9.46453607	     10.77088455	     -2.59182597	    -28.98463378	     18.53282588	     -2.06129836	     29.06429125	     -1.40740568	     -9.85353973	      2.14328873	    -73.39705218	     13.86155877	     -1.25917604	     45.55493262	    -26.41772941	     14.06243053	      2.59859689
      2.30000000	     13.76307332	     -8.27124693	      8.15092079	      1.10098049	      0.92311022	      0.33816941	      8.47061908	     11.02556239	     -2.48563798	    -28.07453384	     18.61354585	     -2.13055616	     28.98675881	     -0.41013317	    -10.06719295	      2.30692589	    -74.11326430	     14.09719090	     -1.77990206	     45.42201186	    -26.56186482	     14.28655828	      2.47416995
      2.30500000	     13.94293835	     -8.49575762	      8.39850767	      1.10694972	      0.92487717	      0.33792804	      7.27165551	     11.42235665	     -2.24956311	    -26.84460417	     18.58919258	     -2.41403967	     28.86665362	      0.50456542	    -10.42064376	      2.49593012	    -74.71805079	     14.52297269	     -1.86596446	     45.26340284	    -26.73367737	     14.60561913	      2.24216867
      2.31000000	     14.07786360	     -8.69631575	      8.58574845	      1.11293297	      0.92656225	      0.33770932	      6.12027106	     11.78673446	     -1.94995378	    -25.63220332	     18.54884338	     -2.67120962	     28.82237265	      1.43407267	    -10.74632659	      2.58849719	    -75.22678838	     15.00843773	     -1.74539385	     45.24684602	    -26.86226434	     14.87085073	      2.13238790
      2.31500000	     14.20547239	     -8.82328930	      8.73301824	      1.11892113	      0.92819228	      0.33746514	      5.06296703	     12.05820442	     -1.71208980	    -24.61337393	     18.55270606	     -2.88468134	     28.81145717	      2.33128515	    -10.96476430	      2.66058755	    -75.63032545	     15.42927702	     -1.58501034	     45.24879390	    -26.98360285	     15.04216462	      2.04518726
      2.32000000	     14.31097263	     -8.83269528	      8.79096540	      1.12484798	      0.92971722	      0.33732478	      4.20043665	     12.19871312	     -1.49242919	    -23.98120308	     18.63488926	     -3.12983797	     28.85740240	      3.17617476	    -11.02202870	      2.66455728	    -75.91682381	     15.87028432	     -1.41468523	     45.06700535	    -27.10876897	     15.05705976	      1.90666117
      2.32500000	     14.34930843	     -8.71845218	      8.70955258	      1.13062920	      0.93105489	      0.33715889	      3.62081533	     12.12939716	     -1.48334142	    -23.82711472	     18.89601136	     -2.97033957	     28.94975030	      4.03320743	    -10.92418972	      2.52065590	    -76.13273686	     16.31834510	     -1.05673832	     45.01132093	    -27.21344594	     14.89762894	      1.84320958
      2.33000000	     14.34832752	     -8.59065483	      8.65833765	      1.13653152	      0.93232671	      0.33673216	      3.07681012	     12.00977975	     -1.60423278	    -23.66814768	     19.20265463	     -2.75320878	     29.04439328	      4.91211961	    -10.79015449	      2.37472566	    -76.26376426	     16.82269717	     -0.71885198	     44.99996929	    -27.23545663	     14.76802094	      1.73550017
      2.33500000	     14.34462255	     -8.41852661	      8.53136836	      1.14249847	      0.93358184	      0.33635513	      2.54422101	     11.83510253	     -1.65063651	    -23.57719509	     19.53773672	     -2.47273400	     29.14784470	      5.72481490	    -10.61009001	      2.14004753	    -76.27312105	     17.21879527	     -0.31239898	     44.97484281	    -27.27073084	     14.55276958	      1.68317805
